<svg width="2686" height="1321" viewBox="0 0 2686 1321" fill="none" xmlns="http://www.w3.org/2000/svg">
<path d="M242.513 804.388C240.508 812.325 229.338 812.561 227.324 804.626C213.421 749.867 190.289 634.575 214.86 547.906C248.227 430.212 284.02 324.652 284.02 324.652C284.02 324.652 297.974 305.239 274.314 277.332C250.654 249.426 167.54 156.606 159.047 133.552C150.554 110.499 97.7736 33.4522 85.0336 33.4522C72.2936 33.4522 23.7603 45.5856 13.447 33.4522C3.13361 21.3189 -7.17973 15.2522 6.77361 11.0056C6.77361 11.0056 40.4152 15.411 62.4674 3.72156C75.1401 -2.996 91.0208 -0.308777 101.686 9.2815C117.704 23.6849 132.135 42.6989 139.634 48.6189C151.16 57.7189 190.594 87.4456 205.154 104.432C219.714 121.419 268.247 188.152 287.66 196.646C307.074 205.139 350.147 233.046 364.1 268.839C379.874 284.006 392.614 277.332 397.467 262.166C384.727 242.146 380.48 207.566 390.794 200.892C401.107 194.219 447.214 166.312 486.04 186.332C524.867 206.352 523.654 239.719 512.734 254.886C501.814 270.052 479.974 273.85 471.48 277.411C462.987 280.972 448.427 297.959 459.347 312.519C465.434 320.636 482.457 330.638 496.331 337.901C513.716 347.002 527.188 362.203 533.243 380.869C535.999 389.368 538.517 399.649 540.255 411.881C541.002 417.139 542.095 422.494 543.905 427.488C559.36 470.122 578.86 499.372 578.86 499.372C578.86 499.372 604.947 525.459 607.98 582.486C612.804 609.82 619.333 627.439 624.403 637.961C631.22 652.106 633.895 668.024 630.648 683.387C628.766 692.294 625.135 699.437 618.294 698.966C600.7 697.752 572.794 698.988 572.794 698.988C572.794 698.988 567.94 669.846 590.387 665.599C600.7 663.779 600.7 668.632 600.7 668.632C600.7 668.632 562.48 587.339 553.38 560.039C544.28 532.739 486.04 429.606 483.614 429.606C481.187 429.606 400.197 438.706 380.784 533.952C361.37 629.199 392.614 734.759 386.547 756.599C380.48 778.439 329.832 868.832 319.666 885.212C309.5 901.592 287.054 909.479 288.874 941.632C290.694 973.786 280.987 1010.79 242.16 1079.35C203.334 1147.9 197.874 1150.33 197.874 1150.33C197.874 1150.33 189.38 1183.09 181.494 1189.76C182.707 1197.04 169.967 1276.51 170.574 1285.61C171.18 1294.71 142.06 1307.45 128.714 1290.47C115.367 1273.48 121.434 1240.11 126.287 1229.8C131.14 1219.49 158.44 1145.47 158.44 1145.47C158.44 1145.47 163.9 1135.77 170.574 1126.67C177.247 1117.57 196.66 1024.14 193.627 995.019C190.594 965.899 191.807 934.959 213.647 919.186C235.487 903.412 272.494 792.392 274.314 763.272C276.134 734.152 303.434 715.346 303.434 715.346C303.434 715.346 263.769 720.242 242.513 804.388Z" fill="white"/>
<path d="M353.485 888.852C353.485 888.852 349.845 928.892 360.765 937.992C371.685 947.092 388.065 985.312 386.245 1061.75C384.425 1138.19 394.435 1170.95 410.815 1182.78C427.195 1194.61 404.445 1198.25 398.075 1216.45C399.326 1225.62 399.622 1236.13 399.575 1244.83C399.514 1256.22 393.326 1266.63 383.261 1271.97C370.874 1278.53 354.08 1285.98 344.082 1284.4C326.792 1281.67 325.275 1276.51 325.275 1276.51C325.275 1276.51 349.157 1263.45 358.035 1251.03C364.935 1241.38 356.215 1188.24 356.215 1188.24L296.155 992.592C296.155 992.592 322.545 867.922 353.485 888.852Z" fill="white"/>
<path d="M726.2 984C724 976.8 721.5 969.4 718.7 961.8C716.1 954.2 713.5 946.6 710.9 939H629.9C627.3 946.6 624.6 954.2 621.8 961.8C619.2 969.4 616.8 976.8 614.6 984H566C573.8 961.6 581.2 940.9 588.2 921.9C595.2 902.9 602 885 608.6 868.2C615.4 851.4 622 835.5 628.4 820.5C635 805.3 641.8 790.5 648.8 776.1H693.5C700.3 790.5 707 805.3 713.6 820.5C720.2 835.5 726.8 851.4 733.4 868.2C740.2 885 747.1 902.9 754.1 921.9C761.1 940.9 768.5 961.6 776.3 984H726.2ZM670.1 823.2C669.1 826.2 667.6 830.3 665.6 835.5C663.6 840.7 661.3 846.7 658.7 853.5C656.1 860.3 653.2 867.8 650 876C647 884.2 643.9 892.8 640.7 901.8H699.8C696.6 892.8 693.5 884.2 690.5 876C687.5 867.8 684.6 860.3 681.8 853.5C679.2 846.7 676.9 840.7 674.9 835.5C672.9 830.3 671.3 826.2 670.1 823.2ZM886.911 900.3C886.911 885.9 885.011 875.7 881.211 869.7C877.611 863.7 871.311 860.7 862.311 860.7C859.511 860.7 856.611 860.9 853.611 861.3C850.611 861.5 847.711 861.8 844.911 862.2V984H800.211V831.6C804.011 830.6 808.411 829.6 813.411 828.6C818.611 827.4 824.011 826.4 829.611 825.6C835.411 824.6 841.311 823.9 847.311 823.5C853.311 822.9 859.211 822.6 865.011 822.6C876.411 822.6 885.611 824.1 892.611 827.1C899.811 829.9 905.711 833.3 910.311 837.3C916.711 832.7 924.011 829.1 932.211 826.5C940.611 823.9 948.311 822.6 955.311 822.6C967.911 822.6 978.211 824.4 986.211 828C994.411 831.4 1000.91 836.3 1005.71 842.7C1010.51 849.1 1013.81 856.7 1015.61 865.5C1017.41 874.3 1018.31 884.1 1018.31 894.9V984H973.611V900.3C973.611 885.9 971.711 875.7 967.911 869.7C964.311 863.7 958.011 860.7 949.011 860.7C946.611 860.7 943.211 861.3 938.811 862.5C934.611 863.7 931.111 865.2 928.311 867C929.711 871.6 930.611 876.5 931.011 881.7C931.411 886.7 931.611 892.1 931.611 897.9V984H886.911V900.3ZM1119.2 952.8C1123.6 952.8 1127.8 952.7 1131.8 952.5C1135.8 952.3 1139 952 1141.4 951.6V917.7C1139.6 917.3 1136.9 916.9 1133.3 916.5C1129.7 916.1 1126.4 915.9 1123.4 915.9C1119.2 915.9 1115.2 916.2 1111.4 916.8C1107.8 917.2 1104.6 918.1 1101.8 919.5C1099 920.9 1096.8 922.8 1095.2 925.2C1093.6 927.6 1092.8 930.6 1092.8 934.2C1092.8 941.2 1095.1 946.1 1099.7 948.9C1104.5 951.5 1111 952.8 1119.2 952.8ZM1115.6 822C1128.8 822 1139.8 823.5 1148.6 826.5C1157.4 829.5 1164.4 833.8 1169.6 839.4C1175 845 1178.8 851.8 1181 859.8C1183.2 867.8 1184.3 876.7 1184.3 886.5V979.5C1177.9 980.9 1169 982.5 1157.6 984.3C1146.2 986.3 1132.4 987.3 1116.2 987.3C1106 987.3 1096.7 986.4 1088.3 984.6C1080.1 982.8 1073 979.9 1067 975.9C1061 971.7 1056.4 966.3 1053.2 959.7C1050 953.1 1048.4 945 1048.4 935.4C1048.4 926.2 1050.2 918.4 1053.8 912C1057.6 905.6 1062.6 900.5 1068.8 896.7C1075 892.9 1082.1 890.2 1090.1 888.6C1098.1 886.8 1106.4 885.9 1115 885.9C1120.8 885.9 1125.9 886.2 1130.3 886.8C1134.9 887.2 1138.6 887.8 1141.4 888.6V884.4C1141.4 876.8 1139.1 870.7 1134.5 866.1C1129.9 861.5 1121.9 859.2 1110.5 859.2C1102.9 859.2 1095.4 859.8 1088 861C1080.6 862 1074.2 863.5 1068.8 865.5L1063.1 829.5C1065.7 828.7 1068.9 827.9 1072.7 827.1C1076.7 826.1 1081 825.3 1085.6 824.7C1090.2 823.9 1095 823.3 1100 822.9C1105.2 822.3 1110.4 822 1115.6 822ZM1343.22 856.2C1339.62 860.2 1334.72 865.6 1328.52 872.4C1322.52 879.2 1316.02 886.7 1309.02 894.9C1302.02 903.1 1294.92 911.7 1287.72 920.7C1280.72 929.7 1274.32 938.4 1268.52 946.8H1344.72V984H1214.22V957.6C1218.42 950.4 1223.42 942.7 1229.22 934.5C1235.22 926.1 1241.42 917.7 1247.82 909.3C1254.42 900.9 1260.92 892.8 1267.32 885C1273.72 877 1279.62 869.8 1285.02 863.4H1217.82V826.2H1343.22V856.2ZM1419.42 984H1374.72V826.2H1419.42V984ZM1423.62 780.6C1423.62 788.8 1420.92 795.3 1415.52 800.1C1410.32 804.7 1404.12 807 1396.92 807C1389.72 807 1383.42 804.7 1378.02 800.1C1372.82 795.3 1370.22 788.8 1370.22 780.6C1370.22 772.4 1372.82 766 1378.02 761.4C1383.42 756.6 1389.72 754.2 1396.92 754.2C1404.12 754.2 1410.32 756.6 1415.52 761.4C1420.92 766 1423.62 772.4 1423.62 780.6ZM1461.44 831.6C1469.04 829.4 1478.84 827.4 1490.84 825.6C1502.84 823.6 1515.44 822.6 1528.64 822.6C1542.04 822.6 1553.14 824.4 1561.94 828C1570.94 831.4 1578.04 836.3 1583.24 842.7C1588.44 849.1 1592.14 856.7 1594.34 865.5C1596.54 874.3 1597.64 884.1 1597.64 894.9V984H1552.94V900.3C1552.94 885.9 1551.04 875.7 1547.24 869.7C1543.44 863.7 1536.34 860.7 1525.94 860.7C1522.74 860.7 1519.34 860.9 1515.74 861.3C1512.14 861.5 1508.94 861.8 1506.14 862.2V984H1461.44V831.6ZM1676.2 900C1676.2 925 1686.3 937.5 1706.5 937.5C1711.1 937.5 1715.4 936.9 1719.4 935.7C1723.4 934.5 1726.8 933.1 1729.6 931.5V860.1C1727.4 859.7 1724.8 859.4 1721.8 859.2C1718.8 858.8 1715.3 858.6 1711.3 858.6C1699.5 858.6 1690.7 862.5 1684.9 870.3C1679.1 878.1 1676.2 888 1676.2 900ZM1774.3 964.2C1774.3 990 1767.7 1009.1 1754.5 1021.5C1741.5 1034.1 1721.3 1040.4 1693.9 1040.4C1684.3 1040.4 1674.7 1039.5 1665.1 1037.7C1655.5 1036.1 1646.6 1033.9 1638.4 1031.1L1646.2 993.6C1653.2 996.4 1660.5 998.6 1668.1 1000.2C1675.9 1001.8 1684.7 1002.6 1694.5 1002.6C1707.3 1002.6 1716.3 999.8 1721.5 994.2C1726.9 988.6 1729.6 981.4 1729.6 972.6V966.9C1724.8 969.1 1719.8 970.8 1714.6 972C1709.6 973 1704.1 973.5 1698.1 973.5C1676.3 973.5 1659.6 967.1 1648 954.3C1636.4 941.3 1630.6 923.2 1630.6 900C1630.6 888.4 1632.4 877.9 1636 868.5C1639.6 858.9 1644.8 850.7 1651.6 843.9C1658.6 837.1 1667.1 831.9 1677.1 828.3C1687.1 824.5 1698.4 822.6 1711 822.6C1716.4 822.6 1721.9 822.9 1727.5 823.5C1733.3 823.9 1739 824.5 1744.6 825.3C1750.2 826.1 1755.5 827.1 1760.5 828.3C1765.7 829.3 1770.3 830.4 1774.3 831.6V964.2ZM1948 948.3C1954.6 948.3 1960 947.8 1964.2 946.8C1968.6 945.6 1972.1 944.1 1974.7 942.3C1977.3 940.3 1979.1 938 1980.1 935.4C1981.1 932.8 1981.6 929.9 1981.6 926.7C1981.6 919.9 1978.4 914.3 1972 909.9C1965.6 905.3 1954.6 900.4 1939 895.2C1932.2 892.8 1925.4 890.1 1918.6 887.1C1911.8 883.9 1905.7 880 1900.3 875.4C1894.9 870.6 1890.5 864.9 1887.1 858.3C1883.7 851.5 1882 843.3 1882 833.7C1882 824.1 1883.8 815.5 1887.4 807.9C1891 800.1 1896.1 793.5 1902.7 788.1C1909.3 782.7 1917.3 778.6 1926.7 775.8C1936.1 772.8 1946.7 771.3 1958.5 771.3C1972.5 771.3 1984.6 772.8 1994.8 775.8C2005 778.8 2013.4 782.1 2020 785.7L2006.5 822.6C2000.7 819.6 1994.2 817 1987 814.8C1980 812.4 1971.5 811.2 1961.5 811.2C1950.3 811.2 1942.2 812.8 1937.2 816C1932.4 819 1930 823.7 1930 830.1C1930 833.9 1930.9 837.1 1932.7 839.7C1934.5 842.3 1937 844.7 1940.2 846.9C1943.6 848.9 1947.4 850.8 1951.6 852.6C1956 854.2 1960.8 855.9 1966 857.7C1976.8 861.7 1986.2 865.7 1994.2 869.7C2002.2 873.5 2008.8 878 2014 883.2C2019.4 888.4 2023.4 894.5 2026 901.5C2028.6 908.5 2029.9 917 2029.9 927C2029.9 946.4 2023.1 961.5 2009.5 972.3C1995.9 982.9 1975.4 988.2 1948 988.2C1938.8 988.2 1930.5 987.6 1923.1 986.4C1915.7 985.4 1909.1 984.1 1903.3 982.5C1897.7 980.9 1892.8 979.2 1888.6 977.4C1884.6 975.6 1881.2 973.9 1878.4 972.3L1891.6 935.1C1897.8 938.5 1905.4 941.6 1914.4 944.4C1923.6 947 1934.8 948.3 1948 948.3ZM2062.91 984V758.4L2107.61 751.2V826.8C2110.61 825.8 2114.41 824.9 2119.01 824.1C2123.81 823.1 2128.41 822.6 2132.81 822.6C2145.61 822.6 2156.21 824.4 2164.61 828C2173.21 831.4 2180.01 836.3 2185.01 842.7C2190.21 849.1 2193.81 856.7 2195.81 865.5C2198.01 874.3 2199.11 884.1 2199.11 894.9V984H2154.41V900.3C2154.41 885.9 2152.51 875.7 2148.71 869.7C2145.11 863.7 2138.31 860.7 2128.31 860.7C2124.31 860.7 2120.51 861.1 2116.91 861.9C2113.51 862.5 2110.41 863.2 2107.61 864V984H2062.91ZM2387.17 904.8C2387.17 917.2 2385.37 928.6 2381.77 939C2378.17 949.2 2372.97 958 2366.17 965.4C2359.37 972.6 2351.17 978.2 2341.57 982.2C2332.17 986.2 2321.57 988.2 2309.77 988.2C2298.17 988.2 2287.57 986.2 2277.97 982.2C2268.57 978.2 2260.47 972.6 2253.67 965.4C2246.87 958 2241.57 949.2 2237.77 939C2233.97 928.6 2232.07 917.2 2232.07 904.8C2232.07 892.4 2233.97 881.1 2237.77 870.9C2241.77 860.7 2247.17 852 2253.97 844.8C2260.97 837.6 2269.17 832 2278.57 828C2288.17 824 2298.57 822 2309.77 822C2321.17 822 2331.57 824 2340.97 828C2350.57 832 2358.77 837.6 2365.57 844.8C2372.37 852 2377.67 860.7 2381.47 870.9C2385.27 881.1 2387.17 892.4 2387.17 904.8ZM2341.57 904.8C2341.57 891 2338.77 880.2 2333.17 872.4C2327.77 864.4 2319.97 860.4 2309.77 860.4C2299.57 860.4 2291.67 864.4 2286.07 872.4C2280.47 880.2 2277.67 891 2277.67 904.8C2277.67 918.6 2280.47 929.6 2286.07 937.8C2291.67 945.8 2299.57 949.8 2309.77 949.8C2319.97 949.8 2327.77 945.8 2333.17 937.8C2338.77 929.6 2341.57 918.6 2341.57 904.8ZM2514.28 893.4C2510.28 908.6 2505.98 923.7 2501.38 938.7C2496.98 953.7 2492.28 968.8 2487.28 984H2452.48C2448.88 975.6 2444.98 965.6 2440.78 954C2436.58 942.4 2432.18 929.8 2427.58 916.2C2423.18 902.4 2418.58 887.9 2413.78 872.7C2409.18 857.3 2404.68 841.8 2400.28 826.2H2447.38C2448.98 833.4 2450.68 841.3 2452.48 849.9C2454.48 858.3 2456.48 867 2458.48 876C2460.68 885 2462.88 894.1 2465.08 903.3C2467.48 912.3 2469.88 921 2472.28 929.4C2474.88 920.6 2477.38 911.6 2479.78 902.4C2482.38 893.2 2484.78 884.2 2486.98 875.4C2489.38 866.4 2491.58 857.8 2493.58 849.6C2495.78 841.2 2497.68 833.4 2499.28 826.2H2531.68C2533.28 833.4 2535.08 841.2 2537.08 849.6C2539.08 857.8 2541.18 866.4 2543.38 875.4C2545.58 884.2 2547.88 893.2 2550.28 902.4C2552.68 911.6 2555.18 920.6 2557.78 929.4C2560.18 921 2562.58 912.3 2564.98 903.3C2567.38 894.1 2569.58 885 2571.58 876C2573.78 867 2575.78 858.3 2577.58 849.9C2579.58 841.3 2581.38 833.4 2582.98 826.2H2629.48C2625.08 841.8 2620.48 857.3 2615.68 872.7C2611.08 887.9 2606.48 902.4 2601.88 916.2C2597.48 929.8 2593.08 942.4 2588.68 954C2584.48 965.6 2580.58 975.6 2576.98 984H2542.18C2537.18 968.8 2532.28 953.7 2527.48 938.7C2522.68 923.7 2518.28 908.6 2514.28 893.4Z" fill="white"/>
<path d="M648.25 1257.25C657.75 1257.25 664.75 1256 669.25 1253.5C673.917 1251 676.25 1247 676.25 1241.5C676.25 1235.83 674 1231.33 669.5 1228C665 1224.67 657.583 1220.92 647.25 1216.75C642.25 1214.75 637.417 1212.75 632.75 1210.75C628.25 1208.58 624.333 1206.08 621 1203.25C617.667 1200.42 615 1197 613 1193C611 1189 610 1184.08 610 1178.25C610 1166.75 614.25 1157.67 622.75 1151C631.25 1144.17 642.833 1140.75 657.5 1140.75C661.167 1140.75 664.833 1141 668.5 1141.5C672.167 1141.83 675.583 1142.33 678.75 1143C681.917 1143.5 684.667 1144.08 687 1144.75C689.5 1145.42 691.417 1146 692.75 1146.5L688.5 1166.5C686 1165.17 682.083 1163.83 676.75 1162.5C671.417 1161 665 1160.25 657.5 1160.25C651 1160.25 645.333 1161.58 640.5 1164.25C635.667 1166.75 633.25 1170.75 633.25 1176.25C633.25 1179.08 633.75 1181.58 634.75 1183.75C635.917 1185.92 637.583 1187.92 639.75 1189.75C642.083 1191.42 644.917 1193 648.25 1194.5C651.583 1196 655.583 1197.58 660.25 1199.25C666.417 1201.58 671.917 1203.92 676.75 1206.25C681.583 1208.42 685.667 1211 689 1214C692.5 1217 695.167 1220.67 697 1225C698.833 1229.17 699.75 1234.33 699.75 1240.5C699.75 1252.5 695.25 1261.58 686.25 1267.75C677.417 1273.92 664.75 1277 648.25 1277C636.75 1277 627.75 1276 621.25 1274C614.75 1272.17 610.333 1270.75 608 1269.75L612.25 1249.75C614.917 1250.75 619.167 1252.25 625 1254.25C630.833 1256.25 638.583 1257.25 648.25 1257.25ZM888.572 1209.25C888.572 1194.08 884.822 1182.42 877.322 1174.25C869.822 1166.08 859.822 1162 847.322 1162C840.322 1162 834.822 1162.25 830.822 1162.75C826.989 1163.25 823.906 1163.83 821.572 1164.5V1246.5C824.406 1248.83 828.489 1251.08 833.822 1253.25C839.156 1255.42 844.989 1256.5 851.322 1256.5C857.989 1256.5 863.656 1255.33 868.322 1253C873.156 1250.5 877.072 1247.17 880.072 1243C883.072 1238.67 885.239 1233.67 886.572 1228C887.906 1222.17 888.572 1215.92 888.572 1209.25ZM912.822 1209.25C912.822 1219.08 911.489 1228.17 908.822 1236.5C906.322 1244.83 902.572 1252 897.572 1258C892.572 1264 886.406 1268.67 879.072 1272C871.906 1275.33 863.656 1277 854.322 1277C846.822 1277 840.156 1276 834.322 1274C828.656 1272 824.406 1270.08 821.572 1268.25V1320.25H798.322V1148C803.822 1146.67 810.656 1145.25 818.822 1143.75C827.156 1142.08 836.739 1141.25 847.572 1141.25C857.572 1141.25 866.572 1142.83 874.572 1146C882.572 1149.17 889.406 1153.67 895.072 1159.5C900.739 1165.33 905.072 1172.5 908.072 1181C911.239 1189.33 912.822 1198.75 912.822 1209.25ZM1062.29 1141.25C1064.29 1141.25 1066.54 1141.42 1069.04 1141.75C1071.71 1141.92 1074.29 1142.25 1076.79 1142.75C1079.29 1143.08 1081.54 1143.5 1083.54 1144C1085.71 1144.33 1087.29 1144.67 1088.29 1145L1084.29 1165.25C1082.46 1164.58 1079.37 1163.83 1075.04 1163C1070.87 1162 1065.46 1161.5 1058.79 1161.5C1054.46 1161.5 1050.12 1162 1045.79 1163C1041.62 1163.83 1038.87 1164.42 1037.54 1164.75V1274H1014.29V1149.5C1019.79 1147.5 1026.62 1145.67 1034.79 1144C1042.96 1142.17 1052.12 1141.25 1062.29 1141.25ZM1202.72 1274H1179.47V1144H1202.72V1274ZM1190.97 1120.5C1186.81 1120.5 1183.22 1119.17 1180.22 1116.5C1177.39 1113.67 1175.97 1109.92 1175.97 1105.25C1175.97 1100.58 1177.39 1096.92 1180.22 1094.25C1183.22 1091.42 1186.81 1090 1190.97 1090C1195.14 1090 1198.64 1091.42 1201.47 1094.25C1204.47 1096.92 1205.97 1100.58 1205.97 1105.25C1205.97 1109.92 1204.47 1113.67 1201.47 1116.5C1198.64 1119.17 1195.14 1120.5 1190.97 1120.5ZM1311.46 1147.75C1316.79 1146.42 1323.87 1145 1332.71 1143.5C1341.54 1142 1351.71 1141.25 1363.21 1141.25C1373.54 1141.25 1382.12 1142.75 1388.96 1145.75C1395.79 1148.58 1401.21 1152.67 1405.21 1158C1409.37 1163.17 1412.29 1169.42 1413.96 1176.75C1415.62 1184.08 1416.46 1192.17 1416.46 1201V1274H1393.21V1206C1393.21 1198 1392.62 1191.17 1391.46 1185.5C1390.46 1179.83 1388.71 1175.25 1386.21 1171.75C1383.71 1168.25 1380.37 1165.75 1376.21 1164.25C1372.04 1162.58 1366.87 1161.75 1360.71 1161.75C1358.21 1161.75 1355.62 1161.83 1352.96 1162C1350.29 1162.17 1347.71 1162.42 1345.21 1162.75C1342.87 1162.92 1340.71 1163.17 1338.71 1163.5C1336.87 1163.83 1335.54 1164.08 1334.71 1164.25V1274H1311.46V1147.75ZM1605.26 1261C1603.26 1262.33 1599.35 1264.08 1593.51 1266.25C1587.85 1268.25 1581.18 1269.25 1573.51 1269.25C1565.68 1269.25 1558.26 1268 1551.26 1265.5C1544.43 1263 1538.43 1259.17 1533.26 1254C1528.1 1248.67 1524.01 1242.08 1521.01 1234.25C1518.01 1226.42 1516.51 1217.08 1516.51 1206.25C1516.51 1196.75 1517.93 1188.08 1520.76 1180.25C1523.6 1172.25 1527.68 1165.42 1533.01 1159.75C1538.51 1153.92 1545.18 1149.42 1553.01 1146.25C1560.85 1142.92 1569.68 1141.25 1579.51 1141.25C1590.35 1141.25 1599.76 1142.08 1607.76 1143.75C1615.93 1145.25 1622.76 1146.67 1628.26 1148V1264C1628.26 1284 1623.1 1298.5 1612.76 1307.5C1602.43 1316.5 1586.76 1321 1565.76 1321C1557.6 1321 1549.85 1320.33 1542.51 1319C1535.35 1317.67 1529.1 1316.08 1523.76 1314.25L1528.01 1294C1532.68 1295.83 1538.35 1297.42 1545.01 1298.75C1551.85 1300.25 1558.93 1301 1566.26 1301C1580.1 1301 1590.01 1298.25 1596.01 1292.75C1602.18 1287.25 1605.26 1278.5 1605.26 1266.5V1261ZM1605.01 1164.5C1602.68 1163.83 1599.51 1163.25 1595.51 1162.75C1591.68 1162.08 1586.43 1161.75 1579.76 1161.75C1567.26 1161.75 1557.6 1165.83 1550.76 1174C1544.1 1182.17 1540.76 1193 1540.76 1206.5C1540.76 1214 1541.68 1220.42 1543.51 1225.75C1545.51 1231.08 1548.1 1235.5 1551.26 1239C1554.6 1242.5 1558.35 1245.08 1562.51 1246.75C1566.85 1248.42 1571.26 1249.25 1575.76 1249.25C1581.93 1249.25 1587.6 1248.42 1592.76 1246.75C1597.93 1244.92 1602.01 1242.83 1605.01 1240.5V1164.5ZM1960.4 1145C1960.4 1151 1959.15 1156.83 1956.65 1162.5C1954.32 1168 1951.15 1173.5 1947.15 1179C1943.15 1184.33 1938.65 1189.67 1933.65 1195C1928.65 1200.17 1923.65 1205.25 1918.65 1210.25C1915.82 1213.08 1912.49 1216.42 1908.65 1220.25C1904.99 1224.08 1901.49 1228.08 1898.15 1232.25C1894.82 1236.42 1891.99 1240.42 1889.65 1244.25C1887.49 1248.08 1886.4 1251.42 1886.4 1254.25H1966.15V1274H1861.15C1860.99 1273 1860.9 1272 1860.9 1271C1860.9 1270 1860.9 1269.08 1860.9 1268.25C1860.9 1260.42 1862.15 1253.17 1864.65 1246.5C1867.32 1239.67 1870.74 1233.25 1874.9 1227.25C1879.07 1221.25 1883.74 1215.58 1888.9 1210.25C1894.07 1204.92 1899.15 1199.75 1904.15 1194.75C1908.32 1190.75 1912.24 1186.83 1915.9 1183C1919.74 1179 1923.07 1175.08 1925.9 1171.25C1928.9 1167.25 1931.24 1163.17 1932.9 1159C1934.74 1154.83 1935.65 1150.42 1935.65 1145.75C1935.65 1140.75 1934.82 1136.5 1933.15 1133C1931.65 1129.5 1929.57 1126.58 1926.9 1124.25C1924.24 1121.92 1921.07 1120.25 1917.4 1119.25C1913.9 1118.08 1910.15 1117.5 1906.15 1117.5C1901.32 1117.5 1896.9 1118.17 1892.9 1119.5C1888.9 1120.83 1885.32 1122.42 1882.15 1124.25C1878.99 1125.92 1876.32 1127.75 1874.15 1129.75C1871.99 1131.58 1870.32 1133 1869.15 1134L1857.65 1117.5C1859.15 1115.83 1861.4 1113.83 1864.4 1111.5C1867.4 1109 1870.99 1106.67 1875.15 1104.5C1879.32 1102.33 1883.99 1100.5 1889.15 1099C1894.32 1097.5 1899.9 1096.75 1905.9 1096.75C1924.07 1096.75 1937.65 1101 1946.65 1109.5C1955.82 1117.83 1960.4 1129.67 1960.4 1145ZM2066.02 1187.25C2066.02 1158.25 2071.1 1135.92 2081.27 1120.25C2091.6 1104.58 2105.85 1096.75 2124.02 1096.75C2142.18 1096.75 2156.35 1104.58 2166.52 1120.25C2176.85 1135.92 2182.02 1158.25 2182.02 1187.25C2182.02 1216.25 2176.85 1238.58 2166.52 1254.25C2156.35 1269.92 2142.18 1277.75 2124.02 1277.75C2105.85 1277.75 2091.6 1269.92 2081.27 1254.25C2071.1 1238.58 2066.02 1216.25 2066.02 1187.25ZM2157.52 1187.25C2157.52 1177.75 2156.93 1168.75 2155.77 1160.25C2154.77 1151.75 2152.93 1144.33 2150.27 1138C2147.77 1131.67 2144.35 1126.67 2140.02 1123C2135.68 1119.17 2130.35 1117.25 2124.02 1117.25C2117.68 1117.25 2112.35 1119.17 2108.02 1123C2103.68 1126.67 2100.18 1131.67 2097.52 1138C2095.02 1144.33 2093.18 1151.75 2092.02 1160.25C2091.02 1168.75 2090.52 1177.75 2090.52 1187.25C2090.52 1196.75 2091.02 1205.75 2092.02 1214.25C2093.18 1222.75 2095.02 1230.17 2097.52 1236.5C2100.18 1242.83 2103.68 1247.92 2108.02 1251.75C2112.35 1255.42 2117.68 1257.25 2124.02 1257.25C2130.35 1257.25 2135.68 1255.42 2140.02 1251.75C2144.35 1247.92 2147.77 1242.83 2150.27 1236.5C2152.93 1230.17 2154.77 1222.75 2155.77 1214.25C2156.93 1205.75 2157.52 1196.75 2157.52 1187.25ZM2286.63 1136.5C2296.13 1132.83 2305.38 1128.17 2314.38 1122.5C2323.38 1116.67 2331.63 1109.42 2339.13 1100.75H2355.63V1274H2332.38V1133C2330.38 1134.83 2327.88 1136.75 2324.88 1138.75C2322.05 1140.75 2318.88 1142.67 2315.38 1144.5C2312.05 1146.33 2308.46 1148.08 2304.63 1149.75C2300.96 1151.42 2297.38 1152.83 2293.88 1154L2286.63 1136.5ZM2598.49 1170C2598.49 1204.33 2589.91 1230.33 2572.74 1248C2555.74 1265.5 2530.41 1274.33 2496.74 1274.5L2495.99 1255C2506.49 1255 2515.91 1254 2524.24 1252C2532.74 1250 2540.16 1246.83 2546.49 1242.5C2552.83 1238 2558.08 1232.25 2562.24 1225.25C2566.58 1218.25 2569.74 1209.67 2571.74 1199.5C2567.41 1201.5 2562.49 1203.17 2556.99 1204.5C2551.49 1205.67 2545.83 1206.25 2539.99 1206.25C2530.16 1206.25 2521.83 1204.83 2514.99 1202C2508.16 1199 2502.58 1195.08 2498.24 1190.25C2493.91 1185.25 2490.74 1179.58 2488.74 1173.25C2486.91 1166.75 2485.99 1160 2485.99 1153C2485.99 1146.83 2487.08 1140.42 2489.24 1133.75C2491.41 1127.08 2494.66 1121 2498.99 1115.5C2503.49 1110 2509.16 1105.5 2515.99 1102C2522.83 1098.5 2530.91 1096.75 2540.24 1096.75C2549.74 1096.75 2558.08 1098.42 2565.24 1101.75C2572.58 1105.08 2578.66 1109.92 2583.49 1116.25C2588.49 1122.58 2592.24 1130.33 2594.74 1139.5C2597.24 1148.5 2598.49 1158.67 2598.49 1170ZM2542.49 1187.25C2548.33 1187.25 2553.83 1186.75 2558.99 1185.75C2564.16 1184.58 2569.16 1182.92 2573.99 1180.75C2574.16 1178.92 2574.24 1177.17 2574.24 1175.5C2574.24 1173.67 2574.24 1171.83 2574.24 1170C2574.24 1162.83 2573.74 1156 2572.74 1149.5C2571.74 1142.83 2569.91 1137.08 2567.24 1132.25C2564.74 1127.25 2561.33 1123.33 2556.99 1120.5C2552.66 1117.5 2547.16 1116 2540.49 1116C2534.99 1116 2530.33 1117.17 2526.49 1119.5C2522.66 1121.83 2519.49 1124.83 2516.99 1128.5C2514.49 1132 2512.66 1135.92 2511.49 1140.25C2510.49 1144.42 2509.99 1148.5 2509.99 1152.5C2509.99 1163.83 2512.66 1172.5 2517.99 1178.5C2523.49 1184.33 2531.66 1187.25 2542.49 1187.25Z" fill="white"/>
</svg>
