<svg width="2285" height="860" viewBox="0 0 2285 860" fill="none" xmlns="http://www.w3.org/2000/svg">
<path d="M242.828 860C242.828 860 295.531 811.824 302.223 760.005C308.915 708.185 363.291 574.457 363.291 574.457L413.484 494.219C413.484 494.219 513.87 339.596 505.505 252.673C497.139 165.749 472.043 96.3776 390.897 62.9455C349.07 52.0801 314.771 57.9307 314.771 57.9307C314.771 57.9307 252.03 50.4085 230.28 1.93193C165.029 -10.6051 143.278 41.2146 141.605 61.2739C140.784 71.1222 145.205 83.5896 149.919 93.7304C154.88 104.403 167.102 109.577 178.117 105.412L252.867 77.1541L285.492 74.6467C285.492 74.6467 257.677 89.2733 220.032 101.81C187.137 112.766 131.405 133.613 117.866 138.699C115.859 139.453 113.994 140.431 112.239 141.661C101.345 149.292 59.3048 178.666 46.2386 186.644C31.1807 195.838 -3.11785 268.553 0.228342 292.791C5.96082 298.078 11.519 302.029 16.5965 304.982C27.6882 311.432 41.6433 303.942 42.2008 291.132L42.8924 275.239C42.8924 275.239 44.2156 266.174 45.5142 254.688C48.3156 229.908 63.3939 208.12 85.5618 196.661C134.013 171.616 147.461 168.257 147.461 168.257C147.461 168.257 241.991 123.123 280.473 133.989C197.654 156.555 133.24 179.122 122.365 193.331C111.49 207.539 101.451 248.494 112.326 259.359C115.643 262.673 119.894 264.976 124.201 266.577C133.994 270.217 144.549 263.521 145.149 253.099C145.841 241.093 146.625 226.148 146.625 220.076C146.625 209.211 153.317 190.823 185.943 180.794C218.568 170.764 296.252 140.58 317.166 152.281C338.08 163.982 364.964 166.585 364.964 166.585C364.964 166.585 408.465 189.152 402.609 220.912C396.753 252.673 369.147 301.149 369.147 301.149C369.147 301.149 332.339 434.878 328.156 466.638C323.973 498.399 288.838 551.89 288.838 551.89C288.838 551.89 260.24 611.101 268.761 718.215C230.28 744.124 240.318 771.706 240.318 771.706C240.318 771.706 249.52 798.452 243.665 811.824C237.809 825.197 218.568 849.67 242.828 860Z" fill="white"/>
<path d="M753.3 331.7C741.9 331.7 730.5 331.3 719.1 330.5C707.9 329.9 696.2 328.3 684 325.7V124.1C693.6 122.3 704.1 121 715.5 120.2C726.9 119.2 737.5 118.7 747.3 118.7C760.5 118.7 772.6 119.7 783.6 121.7C794.8 123.5 804.4 126.7 812.4 131.3C820.4 135.9 826.6 142 831 149.6C835.6 157 837.9 166.2 837.9 177.2C837.9 193.8 829.9 206.9 813.9 216.5C827.1 221.5 836.1 228.3 840.9 236.9C845.7 245.5 848.1 255.2 848.1 266C848.1 287.8 840.1 304.2 824.1 315.2C808.3 326.2 784.7 331.7 753.3 331.7ZM729.6 238.4V292.1C733 292.5 736.7 292.8 740.7 293C744.7 293.2 749.1 293.3 753.9 293.3C767.9 293.3 779.2 291.3 787.8 287.3C796.4 283.3 800.7 275.9 800.7 265.1C800.7 255.5 797.1 248.7 789.9 244.7C782.7 240.5 772.4 238.4 759 238.4H729.6ZM729.6 202.7H752.4C766.8 202.7 777.1 200.9 783.3 197.3C789.5 193.5 792.6 187.5 792.6 179.3C792.6 170.9 789.4 165 783 161.6C776.6 158.2 767.2 156.5 754.8 156.5C750.8 156.5 746.5 156.6 741.9 156.8C737.3 156.8 733.2 157 729.6 157.4V202.7ZM875.063 251.3C875.063 237.3 877.163 225.1 881.362 214.7C885.763 204.1 891.463 195.3 898.463 188.3C905.463 181.3 913.463 176 922.463 172.4C931.663 168.8 941.063 167 950.663 167C973.063 167 990.763 173.9 1003.76 187.7C1016.76 201.3 1023.26 221.4 1023.26 248C1023.26 250.6 1023.16 253.5 1022.96 256.7C1022.76 259.7 1022.56 262.4 1022.36 264.8H920.963C921.963 274 926.263 281.3 933.863 286.7C941.463 292.1 951.663 294.8 964.463 294.8C972.663 294.8 980.663 294.1 988.463 292.7C996.463 291.1 1002.96 289.2 1007.96 287L1013.96 323.3C1011.56 324.5 1008.36 325.7 1004.36 326.9C1000.36 328.1 995.863 329.1 990.863 329.9C986.063 330.9 980.863 331.7 975.263 332.3C969.663 332.9 964.063 333.2 958.463 333.2C944.263 333.2 931.863 331.1 921.263 326.9C910.863 322.7 902.163 317 895.163 309.8C888.363 302.4 883.263 293.7 879.863 283.7C876.663 273.7 875.063 262.9 875.063 251.3ZM980.063 234.2C979.863 230.4 979.163 226.7 977.963 223.1C976.963 219.5 975.263 216.3 972.863 213.5C970.663 210.7 967.763 208.4 964.163 206.6C960.763 204.8 956.463 203.9 951.263 203.9C946.263 203.9 941.963 204.8 938.363 206.6C934.763 208.2 931.763 210.4 929.363 213.2C926.963 216 925.063 219.3 923.663 223.1C922.463 226.7 921.563 230.4 920.963 234.2H980.063ZM1103.06 296.9C1111.26 296.9 1117.06 296.1 1120.46 294.5C1123.86 292.9 1125.56 289.8 1125.56 285.2C1125.56 281.6 1123.36 278.5 1118.96 275.9C1114.56 273.1 1107.86 270 1098.86 266.6C1091.86 264 1085.46 261.3 1079.66 258.5C1074.06 255.7 1069.26 252.4 1065.26 248.6C1061.26 244.6 1058.16 239.9 1055.96 234.5C1053.76 229.1 1052.66 222.6 1052.66 215C1052.66 200.2 1058.16 188.5 1069.16 179.9C1080.16 171.3 1095.26 167 1114.46 167C1124.06 167 1133.26 167.9 1142.06 169.7C1150.86 171.3 1157.86 173.1 1163.06 175.1L1155.26 209.9C1150.06 208.1 1144.36 206.5 1138.16 205.1C1132.16 203.7 1125.36 203 1117.76 203C1103.76 203 1096.76 206.9 1096.76 214.7C1096.76 216.5 1097.06 218.1 1097.66 219.5C1098.26 220.9 1099.46 222.3 1101.26 223.7C1103.06 224.9 1105.46 226.3 1108.46 227.9C1111.66 229.3 1115.66 230.9 1120.46 232.7C1130.26 236.3 1138.36 239.9 1144.76 243.5C1151.16 246.9 1156.16 250.7 1159.76 254.9C1163.56 258.9 1166.16 263.4 1167.56 268.4C1169.16 273.4 1169.96 279.2 1169.96 285.8C1169.96 301.4 1164.06 313.2 1152.26 321.2C1140.66 329.2 1124.16 333.2 1102.76 333.2C1088.76 333.2 1077.06 332 1067.66 329.6C1058.46 327.2 1052.06 325.2 1048.46 323.6L1055.96 287.3C1063.56 290.3 1071.36 292.7 1079.36 294.5C1087.36 296.1 1095.26 296.9 1103.06 296.9ZM1201.86 131.9L1246.56 124.7V171.2H1300.26V208.4H1246.56V263.9C1246.56 273.3 1248.16 280.8 1251.36 286.4C1254.76 292 1261.46 294.8 1271.46 294.8C1276.26 294.8 1281.16 294.4 1286.16 293.6C1291.36 292.6 1296.06 291.3 1300.26 289.7L1306.56 324.5C1301.16 326.7 1295.16 328.6 1288.56 330.2C1281.96 331.8 1273.86 332.6 1264.26 332.6C1252.06 332.6 1241.96 331 1233.96 327.8C1225.96 324.4 1219.56 319.8 1214.76 314C1209.96 308 1206.56 300.8 1204.56 292.4C1202.76 284 1201.86 274.7 1201.86 264.5V131.9ZM1458.53 290.9C1460.73 291.1 1463.23 291.3 1466.03 291.5C1469.03 291.5 1472.53 291.5 1476.53 291.5C1499.93 291.5 1517.23 285.6 1528.43 273.8C1539.83 262 1545.53 245.7 1545.53 224.9C1545.53 203.1 1540.13 186.6 1529.33 175.4C1518.53 164.2 1501.43 158.6 1478.03 158.6C1474.83 158.6 1471.53 158.7 1468.13 158.9C1464.73 158.9 1461.53 159.1 1458.53 159.5V290.9ZM1593.83 224.9C1593.83 242.9 1591.03 258.6 1585.43 272C1579.83 285.4 1571.83 296.5 1561.43 305.3C1551.23 314.1 1538.73 320.7 1523.93 325.1C1509.13 329.5 1492.53 331.7 1474.13 331.7C1465.73 331.7 1455.93 331.3 1444.73 330.5C1433.53 329.9 1422.53 328.5 1411.73 326.3V123.8C1422.53 121.8 1433.73 120.5 1445.33 119.9C1457.13 119.1 1467.23 118.7 1475.63 118.7C1493.43 118.7 1509.53 120.7 1523.93 124.7C1538.53 128.7 1551.03 135 1561.43 143.6C1571.83 152.2 1579.83 163.2 1585.43 176.6C1591.03 190 1593.83 206.1 1593.83 224.9ZM1690.23 297.8C1694.63 297.8 1698.83 297.7 1702.83 297.5C1706.83 297.3 1710.03 297 1712.43 296.6V262.7C1710.63 262.3 1707.93 261.9 1704.33 261.5C1700.73 261.1 1697.43 260.9 1694.43 260.9C1690.23 260.9 1686.23 261.2 1682.43 261.8C1678.83 262.2 1675.63 263.1 1672.83 264.5C1670.03 265.9 1667.83 267.8 1666.23 270.2C1664.63 272.6 1663.83 275.6 1663.83 279.2C1663.83 286.2 1666.13 291.1 1670.73 293.9C1675.53 296.5 1682.03 297.8 1690.23 297.8ZM1686.63 167C1699.83 167 1710.83 168.5 1719.63 171.5C1728.43 174.5 1735.43 178.8 1740.63 184.4C1746.03 190 1749.83 196.8 1752.03 204.8C1754.23 212.8 1755.33 221.7 1755.33 231.5V324.5C1748.93 325.9 1740.03 327.5 1728.63 329.3C1717.23 331.3 1703.43 332.3 1687.23 332.3C1677.03 332.3 1667.73 331.4 1659.33 329.6C1651.13 327.8 1644.03 324.9 1638.03 320.9C1632.03 316.7 1627.43 311.3 1624.23 304.7C1621.03 298.1 1619.43 290 1619.43 280.4C1619.43 271.2 1621.23 263.4 1624.83 257C1628.63 250.6 1633.63 245.5 1639.83 241.7C1646.03 237.9 1653.13 235.2 1661.13 233.6C1669.13 231.8 1677.43 230.9 1686.03 230.9C1691.83 230.9 1696.93 231.2 1701.33 231.8C1705.93 232.2 1709.63 232.8 1712.43 233.6V229.4C1712.43 221.8 1710.13 215.7 1705.53 211.1C1700.93 206.5 1692.93 204.2 1681.53 204.2C1673.93 204.2 1666.43 204.8 1659.03 206C1651.63 207 1645.23 208.5 1639.83 210.5L1634.13 174.5C1636.73 173.7 1639.93 172.9 1643.73 172.1C1647.73 171.1 1652.03 170.3 1656.63 169.7C1661.23 168.9 1666.03 168.3 1671.03 167.9C1676.23 167.3 1681.43 167 1686.63 167ZM1795.75 176.6C1803.35 174.4 1813.15 172.4 1825.15 170.6C1837.15 168.6 1849.75 167.6 1862.95 167.6C1876.35 167.6 1887.45 169.4 1896.25 173C1905.25 176.4 1912.35 181.3 1917.55 187.7C1922.75 194.1 1926.45 201.7 1928.65 210.5C1930.85 219.3 1931.95 229.1 1931.95 239.9V329H1887.25V245.3C1887.25 230.9 1885.35 220.7 1881.55 214.7C1877.75 208.7 1870.65 205.7 1860.25 205.7C1857.05 205.7 1853.65 205.9 1850.05 206.3C1846.45 206.5 1843.25 206.8 1840.45 207.2V329H1795.75V176.6ZM1964.91 250.1C1964.91 238.7 1966.71 228 1970.31 218C1974.11 207.8 1979.51 199 1986.51 191.6C1993.51 184 2002.01 178 2012.01 173.6C2022.01 169.2 2033.41 167 2046.21 167C2054.61 167 2062.31 167.8 2069.31 169.4C2076.31 170.8 2083.11 172.9 2089.71 175.7L2080.41 211.4C2076.21 209.8 2071.61 208.4 2066.61 207.2C2061.61 206 2056.01 205.4 2049.81 205.4C2036.61 205.4 2026.71 209.5 2020.11 217.7C2013.71 225.9 2010.51 236.7 2010.51 250.1C2010.51 264.3 2013.51 275.3 2019.51 283.1C2025.71 290.9 2036.41 294.8 2051.61 294.8C2057.01 294.8 2062.81 294.3 2069.01 293.3C2075.21 292.3 2080.91 290.7 2086.11 288.5L2092.41 325.1C2087.21 327.3 2080.71 329.2 2072.91 330.8C2065.11 332.4 2056.51 333.2 2047.11 333.2C2032.71 333.2 2020.31 331.1 2009.91 326.9C1999.51 322.5 1990.91 316.6 1984.11 309.2C1977.51 301.8 1972.61 293.1 1969.41 283.1C1966.41 272.9 1964.91 261.9 1964.91 250.1ZM2107.29 251.3C2107.29 237.3 2109.39 225.1 2113.59 214.7C2117.99 204.1 2123.69 195.3 2130.69 188.3C2137.69 181.3 2145.69 176 2154.69 172.4C2163.89 168.8 2173.29 167 2182.89 167C2205.29 167 2222.99 173.9 2235.99 187.7C2248.99 201.3 2255.49 221.4 2255.49 248C2255.49 250.6 2255.39 253.5 2255.19 256.7C2254.99 259.7 2254.79 262.4 2254.59 264.8H2153.19C2154.19 274 2158.49 281.3 2166.09 286.7C2173.69 292.1 2183.89 294.8 2196.69 294.8C2204.89 294.8 2212.89 294.1 2220.69 292.7C2228.69 291.1 2235.19 289.2 2240.19 287L2246.19 323.3C2243.79 324.5 2240.59 325.7 2236.59 326.9C2232.59 328.1 2228.09 329.1 2223.09 329.9C2218.29 330.9 2213.09 331.7 2207.49 332.3C2201.89 332.9 2196.29 333.2 2190.69 333.2C2176.49 333.2 2164.09 331.1 2153.49 326.9C2143.09 322.7 2134.39 317 2127.39 309.8C2120.59 302.4 2115.49 293.7 2112.09 283.7C2108.89 273.7 2107.29 262.9 2107.29 251.3ZM2212.29 234.2C2212.09 230.4 2211.39 226.7 2210.19 223.1C2209.19 219.5 2207.49 216.3 2205.09 213.5C2202.89 210.7 2199.99 208.4 2196.39 206.6C2192.99 204.8 2188.69 203.9 2183.49 203.9C2178.49 203.9 2174.19 204.8 2170.59 206.6C2166.99 208.2 2163.99 210.4 2161.59 213.2C2159.19 216 2157.29 219.3 2155.89 223.1C2154.69 226.7 2153.79 230.4 2153.19 234.2H2212.29Z" fill="white"/>
<path d="M724 649.25C729.5 649.25 734.333 649.167 738.5 649C742.833 648.667 746.417 648.167 749.25 647.5V608.75C747.583 607.917 744.833 607.25 741 606.75C737.333 606.083 732.833 605.75 727.5 605.75C724 605.75 720.25 606 716.25 606.5C712.417 607 708.833 608.083 705.5 609.75C702.333 611.25 699.667 613.417 697.5 616.25C695.333 618.917 694.25 622.5 694.25 627C694.25 635.333 696.917 641.167 702.25 644.5C707.583 647.667 714.833 649.25 724 649.25ZM722 532.75C731.333 532.75 739.167 534 745.5 536.5C752 538.833 757.167 542.25 761 546.75C765 551.083 767.833 556.333 769.5 562.5C771.167 568.5 772 575.167 772 582.5V663.75C770 664.083 767.167 664.583 763.5 665.25C760 665.75 756 666.25 751.5 666.75C747 667.25 742.083 667.667 736.75 668C731.583 668.5 726.417 668.75 721.25 668.75C713.917 668.75 707.167 668 701 666.5C694.833 665 689.5 662.667 685 659.5C680.5 656.167 677 651.833 674.5 646.5C672 641.167 670.75 634.75 670.75 627.25C670.75 620.083 672.167 613.917 675 608.75C678 603.583 682 599.417 687 596.25C692 593.083 697.833 590.75 704.5 589.25C711.167 587.75 718.167 587 725.5 587C727.833 587 730.25 587.167 732.75 587.5C735.25 587.667 737.583 588 739.75 588.5C742.083 588.833 744.083 589.167 745.75 589.5C747.417 589.833 748.583 590.083 749.25 590.25V583.75C749.25 579.917 748.833 576.167 748 572.5C747.167 568.667 745.667 565.333 743.5 562.5C741.333 559.5 738.333 557.167 734.5 555.5C730.833 553.667 726 552.75 720 552.75C712.333 552.75 705.583 553.333 699.75 554.5C694.083 555.5 689.833 556.583 687 557.75L684.25 538.5C687.25 537.167 692.25 535.917 699.25 534.75C706.25 533.417 713.833 532.75 722 532.75ZM947.686 666C943.019 654 938.019 640.333 932.686 625C927.519 609.5 922.769 593.417 918.436 576.75C914.102 593.417 909.352 609.5 904.186 625C899.019 640.333 894.102 654 889.436 666H869.186C861.519 648.833 854.019 629.25 846.686 607.25C839.352 585.25 832.436 561.5 825.936 536H850.936C852.602 543.833 854.602 552.333 856.936 561.5C859.269 570.667 861.686 579.833 864.186 589C866.852 598.167 869.602 607 872.436 615.5C875.269 624 877.936 631.417 880.436 637.75C883.269 629.917 886.019 621.667 888.686 613C891.519 604.167 894.186 595.333 896.686 586.5C899.186 577.5 901.519 568.75 903.686 560.25C906.019 551.583 908.019 543.5 909.686 536H928.936C930.436 543.5 932.269 551.583 934.436 560.25C936.602 568.75 938.936 577.5 941.436 586.5C943.936 595.333 946.519 604.167 949.186 613C952.019 621.667 954.852 629.917 957.686 637.75C960.186 631.417 962.769 624 965.436 615.5C968.269 607 971.019 598.167 973.686 589C976.352 579.833 978.852 570.667 981.186 561.5C983.519 552.333 985.519 543.833 987.186 536H1011.19C1004.69 561.5 997.769 585.25 990.436 607.25C983.102 629.25 975.602 648.833 967.936 666H947.686ZM1113.52 649.25C1119.02 649.25 1123.85 649.167 1128.02 649C1132.35 648.667 1135.94 648.167 1138.77 647.5V608.75C1137.1 607.917 1134.35 607.25 1130.52 606.75C1126.85 606.083 1122.35 605.75 1117.02 605.75C1113.52 605.75 1109.77 606 1105.77 606.5C1101.94 607 1098.35 608.083 1095.02 609.75C1091.85 611.25 1089.19 613.417 1087.02 616.25C1084.85 618.917 1083.77 622.5 1083.77 627C1083.77 635.333 1086.44 641.167 1091.77 644.5C1097.1 647.667 1104.35 649.25 1113.52 649.25ZM1111.52 532.75C1120.85 532.75 1128.69 534 1135.02 536.5C1141.52 538.833 1146.69 542.25 1150.52 546.75C1154.52 551.083 1157.35 556.333 1159.02 562.5C1160.69 568.5 1161.52 575.167 1161.52 582.5V663.75C1159.52 664.083 1156.69 664.583 1153.02 665.25C1149.52 665.75 1145.52 666.25 1141.02 666.75C1136.52 667.25 1131.6 667.667 1126.27 668C1121.1 668.5 1115.94 668.75 1110.77 668.75C1103.44 668.75 1096.69 668 1090.52 666.5C1084.35 665 1079.02 662.667 1074.52 659.5C1070.02 656.167 1066.52 651.833 1064.02 646.5C1061.52 641.167 1060.27 634.75 1060.27 627.25C1060.27 620.083 1061.69 613.917 1064.52 608.75C1067.52 603.583 1071.52 599.417 1076.52 596.25C1081.52 593.083 1087.35 590.75 1094.02 589.25C1100.69 587.75 1107.69 587 1115.02 587C1117.35 587 1119.77 587.167 1122.27 587.5C1124.77 587.667 1127.1 588 1129.27 588.5C1131.6 588.833 1133.6 589.167 1135.27 589.5C1136.94 589.833 1138.1 590.083 1138.77 590.25V583.75C1138.77 579.917 1138.35 576.167 1137.52 572.5C1136.69 568.667 1135.19 565.333 1133.02 562.5C1130.85 559.5 1127.85 557.167 1124.02 555.5C1120.35 553.667 1115.52 552.75 1109.52 552.75C1101.85 552.75 1095.1 553.333 1089.27 554.5C1083.6 555.5 1079.35 556.583 1076.52 557.75L1073.77 538.5C1076.77 537.167 1081.77 535.917 1088.77 534.75C1095.77 533.417 1103.35 532.75 1111.52 532.75ZM1281.89 533.25C1283.89 533.25 1286.14 533.417 1288.64 533.75C1291.3 533.917 1293.89 534.25 1296.39 534.75C1298.89 535.083 1301.14 535.5 1303.14 536C1305.3 536.333 1306.89 536.667 1307.89 537L1303.89 557.25C1302.05 556.583 1298.97 555.833 1294.64 555C1290.47 554 1285.05 553.5 1278.39 553.5C1274.05 553.5 1269.72 554 1265.39 555C1261.22 555.833 1258.47 556.417 1257.14 556.75V666H1233.89V541.5C1239.39 539.5 1246.22 537.667 1254.39 536C1262.55 534.167 1271.72 533.25 1281.89 533.25ZM1448.07 563.5C1445.24 561.167 1441.16 558.917 1435.82 556.75C1430.49 554.583 1424.66 553.5 1418.32 553.5C1411.66 553.5 1405.91 554.75 1401.07 557.25C1396.41 559.583 1392.57 562.917 1389.57 567.25C1386.57 571.417 1384.41 576.417 1383.07 582.25C1381.74 588.083 1381.07 594.333 1381.07 601C1381.07 616.167 1384.82 627.917 1392.32 636.25C1399.82 644.417 1409.82 648.5 1422.32 648.5C1428.66 648.5 1433.91 648.25 1438.07 647.75C1442.41 647.083 1445.74 646.417 1448.07 645.75V563.5ZM1448.07 476L1471.32 472V662.25C1465.99 663.75 1459.16 665.25 1450.82 666.75C1442.49 668.25 1432.91 669 1422.07 669C1412.07 669 1403.07 667.417 1395.07 664.25C1387.07 661.083 1380.24 656.583 1374.57 650.75C1368.91 644.917 1364.49 637.833 1361.32 629.5C1358.32 621 1356.82 611.5 1356.82 601C1356.82 591 1358.07 581.833 1360.57 573.5C1363.24 565.167 1367.07 558 1372.07 552C1377.07 546 1383.16 541.333 1390.32 538C1397.66 534.667 1405.99 533 1415.32 533C1422.82 533 1429.41 534 1435.07 536C1440.91 538 1445.24 539.917 1448.07 541.75V476ZM1733.4 537C1733.4 543 1732.15 548.833 1729.65 554.5C1727.32 560 1724.15 565.5 1720.15 571C1716.15 576.333 1711.65 581.667 1706.65 587C1701.65 592.167 1696.65 597.25 1691.65 602.25C1688.82 605.083 1685.48 608.417 1681.65 612.25C1677.98 616.083 1674.48 620.083 1671.15 624.25C1667.82 628.417 1664.98 632.417 1662.65 636.25C1660.48 640.083 1659.4 643.417 1659.4 646.25H1739.15V666H1634.15C1633.98 665 1633.9 664 1633.9 663C1633.9 662 1633.9 661.083 1633.9 660.25C1633.9 652.417 1635.15 645.167 1637.65 638.5C1640.32 631.667 1643.73 625.25 1647.9 619.25C1652.07 613.25 1656.73 607.583 1661.9 602.25C1667.07 596.917 1672.15 591.75 1677.15 586.75C1681.32 582.75 1685.23 578.833 1688.9 575C1692.73 571 1696.07 567.083 1698.9 563.25C1701.9 559.25 1704.23 555.167 1705.9 551C1707.73 546.833 1708.65 542.417 1708.65 537.75C1708.65 532.75 1707.82 528.5 1706.15 525C1704.65 521.5 1702.57 518.583 1699.9 516.25C1697.23 513.917 1694.07 512.25 1690.4 511.25C1686.9 510.083 1683.15 509.5 1679.15 509.5C1674.32 509.5 1669.9 510.167 1665.9 511.5C1661.9 512.833 1658.32 514.417 1655.15 516.25C1651.98 517.917 1649.32 519.75 1647.15 521.75C1644.98 523.583 1643.32 525 1642.15 526L1630.65 509.5C1632.15 507.833 1634.4 505.833 1637.4 503.5C1640.4 501 1643.98 498.667 1648.15 496.5C1652.32 494.333 1656.98 492.5 1662.15 491C1667.32 489.5 1672.9 488.75 1678.9 488.75C1697.07 488.75 1710.65 493 1719.65 501.5C1728.82 509.833 1733.4 521.667 1733.4 537ZM1804.01 579.25C1804.01 550.25 1809.1 527.917 1819.26 512.25C1829.6 496.583 1843.85 488.75 1862.01 488.75C1880.18 488.75 1894.35 496.583 1904.51 512.25C1914.85 527.917 1920.01 550.25 1920.01 579.25C1920.01 608.25 1914.85 630.583 1904.51 646.25C1894.35 661.917 1880.18 669.75 1862.01 669.75C1843.85 669.75 1829.6 661.917 1819.26 646.25C1809.1 630.583 1804.01 608.25 1804.01 579.25ZM1895.51 579.25C1895.51 569.75 1894.93 560.75 1893.76 552.25C1892.76 543.75 1890.93 536.333 1888.26 530C1885.76 523.667 1882.35 518.667 1878.01 515C1873.68 511.167 1868.35 509.25 1862.01 509.25C1855.68 509.25 1850.35 511.167 1846.01 515C1841.68 518.667 1838.18 523.667 1835.51 530C1833.01 536.333 1831.18 543.75 1830.01 552.25C1829.01 560.75 1828.51 569.75 1828.51 579.25C1828.51 588.75 1829.01 597.75 1830.01 606.25C1831.18 614.75 1833.01 622.167 1835.51 628.5C1838.18 634.833 1841.68 639.917 1846.01 643.75C1850.35 647.417 1855.68 649.25 1862.01 649.25C1868.35 649.25 1873.68 647.417 1878.01 643.75C1882.35 639.917 1885.76 634.833 1888.26 628.5C1890.93 622.167 1892.76 614.75 1893.76 606.25C1894.93 597.75 1895.51 588.75 1895.51 579.25ZM1989.63 528.5C1999.13 524.833 2008.38 520.167 2017.38 514.5C2026.38 508.667 2034.63 501.417 2042.13 492.75H2058.63V666H2035.38V525C2033.38 526.833 2030.88 528.75 2027.88 530.75C2025.04 532.75 2021.88 534.667 2018.38 536.5C2015.04 538.333 2011.46 540.083 2007.63 541.75C2003.96 543.417 2000.38 544.833 1996.88 546L1989.63 528.5ZM2268.49 621C2268.49 628 2267.24 634.5 2264.74 640.5C2262.41 646.333 2258.82 651.5 2253.99 656C2249.32 660.333 2243.41 663.667 2236.24 666C2229.07 668.5 2220.82 669.75 2211.49 669.75C2200.66 669.75 2191.57 668.25 2184.24 665.25C2177.07 662.083 2171.32 658.167 2166.99 653.5C2162.66 648.833 2159.57 643.75 2157.74 638.25C2155.91 632.583 2154.99 627.25 2154.99 622.25C2154.99 617.417 2155.74 612.833 2157.24 608.5C2158.91 604 2160.99 599.833 2163.49 596C2166.16 592.167 2169.16 588.75 2172.49 585.75C2175.99 582.583 2179.66 579.833 2183.49 577.5C2167.16 568.167 2158.99 554.417 2158.99 536.25C2158.99 529.917 2160.24 523.917 2162.74 518.25C2165.24 512.417 2168.74 507.333 2173.24 503C2177.91 498.667 2183.49 495.25 2189.99 492.75C2196.49 490.083 2203.74 488.75 2211.74 488.75C2221.07 488.75 2229.07 490.167 2235.74 493C2242.41 495.833 2247.82 499.5 2251.99 504C2256.32 508.333 2259.41 513.167 2261.24 518.5C2263.24 523.833 2264.24 529 2264.24 534C2264.24 538.833 2263.49 543.417 2261.99 547.75C2260.66 551.917 2258.74 555.833 2256.24 559.5C2253.91 563.167 2251.16 566.417 2247.99 569.25C2244.99 572.083 2241.82 574.583 2238.49 576.75C2258.16 586.083 2268.16 600.833 2268.49 621ZM2178.49 622.5C2178.49 625.5 2178.99 628.667 2179.99 632C2181.16 635.167 2183.07 638.167 2185.74 641C2188.41 643.667 2191.82 645.917 2195.99 647.75C2200.16 649.583 2205.41 650.5 2211.74 650.5C2217.41 650.5 2222.32 649.667 2226.49 648C2230.82 646.333 2234.32 644.25 2236.99 641.75C2239.66 639.083 2241.66 636.083 2242.99 632.75C2244.32 629.417 2244.99 626 2244.99 622.5C2244.99 617.167 2243.99 612.5 2241.99 608.5C2239.99 604.5 2237.07 601 2233.24 598C2229.57 595 2225.07 592.5 2219.74 590.5C2214.57 588.333 2208.66 586.5 2201.99 585C2194.49 589.167 2188.66 594.333 2184.49 600.5C2180.49 606.667 2178.49 614 2178.49 622.5ZM2240.99 533.75C2240.99 531.25 2240.41 528.5 2239.24 525.5C2238.24 522.5 2236.57 519.75 2234.24 517.25C2231.91 514.583 2228.91 512.417 2225.24 510.75C2221.57 508.917 2217.07 508 2211.74 508C2206.41 508 2201.82 508.833 2197.99 510.5C2194.32 512.167 2191.32 514.333 2188.99 517C2186.66 519.5 2184.91 522.333 2183.74 525.5C2182.74 528.5 2182.24 531.5 2182.24 534.5C2182.24 538.167 2182.91 541.833 2184.24 545.5C2185.57 549.167 2187.66 552.583 2190.49 555.75C2193.32 558.917 2196.99 561.75 2201.49 564.25C2206.16 566.75 2211.66 568.75 2217.99 570.25C2224.99 566.083 2230.57 561.25 2234.74 555.75C2238.91 550.083 2240.99 542.75 2240.99 533.75Z" fill="white"/>
</svg>
