<?xml version="1.0" encoding="UTF-8"?>
<svg width="3148px" height="1276px" viewBox="0 0 3148 1276" version="1.1" xmlns="http://www.w3.org/2000/svg" xmlns:xlink="http://www.w3.org/1999/xlink">
    <!-- Generator: Sketch 58 (84663) - https://sketch.com -->
    <title>5e7deab4f89f6c0023419db1</title>
    <desc>Created with Sketch.</desc>
    <g id="Page-1" stroke="none" stroke-width="1" fill="none" fill-rule="evenodd">
        <g id="5e7deab4f89f6c0023419db1" fill="#FFFFFF">
            <path d="M0.121432,212.373 C0.121432,212.373 24.6914,200.543 50.1714,234.213 C75.6514,267.883 102.041,266.063 102.041,266.063 C102.041,266.063 127.521,261.513 132.071,276.983 C136.621,292.453 132.071,313.383 132.071,313.383 C132.071,313.383 235.811,347.053 279.491,394.373 C323.171,441.693 310.431,458.073 335.001,482.643 C359.571,507.213 393.241,529.963 531.561,559.083 C587.071,524.503 582.521,507.213 582.521,507.213 C582.521,507.213 587.071,462.017 554.311,412.877 C536.745,386.527 548.507,360.703 548.507,360.703 L550.671,330.673 C550.671,330.673 537.931,403.473 486.971,397.103 C436.011,390.733 397.791,347.963 425.091,313.383 C452.391,278.803 458.761,236.033 526.101,239.673 C526.101,239.673 544.301,256.053 547.941,268.793 C570.691,270.613 613.461,277.893 630.751,291.543 C648.041,305.193 688.991,262.423 688.991,262.423 L734.091,215.47 C748.87,200.083 760.322,181.892 767.892,161.945 C779.88,130.355 795.548,84.324 790.911,70.413 C760.099,68.143 728.525,61.225 729.941,45.843 C730.832,36.165 768.161,54.033 766.341,46.753 C751.915,34.635 741.069,37.076 724.411,29.8309 C713.717,25.1799 712.984,10.1559 723.287,4.6935 C732.493,-0.1871 747.071,-2.5079 769.981,3.9833 C782.817,11.0888 788.939,11.4819 798.023,17.7911 C822.039,34.47 825.374,54.615 822.721,83.734 C818.342,131.791 817.152,190.862 808.201,210.553 C790.001,250.593 713.561,330.673 713.561,330.673 C713.561,330.673 810.021,368.893 795.461,499.023 C780.901,629.153 705.371,681.023 705.371,681.023 C705.371,681.023 808.201,846.643 826.401,874.853 C844.601,903.063 876.451,988.6 899.201,1010.44 C921.951,1032.28 962.901,1099.62 984.741,1114.18 C1006.58,1128.74 1079.38,1223.38 1086.66,1233.39 C1093.94,1243.4 1105.77,1262.51 1086.66,1274.34 C1067.55,1286.17 1028.42,1225.2 1028.42,1225.2 C1028.42,1225.2 987.471,1205.18 955.621,1206.99999 C941.061,1196.08 951.071,1164.23 951.071,1164.23 C951.071,1164.23 881.001,1085.06 800.011,1031.37 C765.431,993.15 763.611,930.36 763.611,930.36 C763.611,930.36 552.491,754.733 541.571,702.863 C470.591,677.383 291.321,566.363 291.321,566.363 C291.321,566.363 144.811,374.353 92.9414,347.053 C41.0714,319.753 -2.60857,236.033 0.121432,212.373 Z" id="Path" fill-rule="nonzero"></path>
            <path d="M465.614,227.555 C470.749,223.806 469.64,215.851 463.705,213.57 C428.834,200.174 360.501,175.349 312.254,166.873 C283.79,161.873 265.895,159.149 254.718,157.67 C244.304,156.292 234.398,162.142 230.594,171.934 C220.152,198.807 199.269,250.979 191.224,259.693 C180.304,271.523 213.064,281.533 213.064,281.533 C213.064,281.533 226.714,222.367 236.724,218.735 C246.734,215.103 257.654,208.733 257.654,208.733 C257.654,208.733 256.744,189.623 277.674,187.803 C298.604,185.983 362.304,232.393 362.304,232.393 L443.294,254.233 C443.294,254.233 452.766,236.938 465.614,227.555 Z" id="Path" fill-rule="nonzero"></path>
            <text id="Breakthrough-of-the" font-family="Ubuntu-Medium, Ubuntu" font-size="300" font-weight="400" line-spacing="400" letter-spacing="5">
                <tspan x="1098" y="434"> Breakthrough</tspan>
                <tspan x="1098" y="835"> of the Year</tspan>
            </text>
        </g>
    </g>
</svg>